<?xml version="1.0" encoding="UTF-8" standalone="no"?>
<!DOCTYPE svg PUBLIC "-//W3C//DTD SVG 1.1//EN"
 "http://www.w3.org/Graphics/SVG/1.1/DTD/svg11.dtd">
<!-- Generated by graphviz version 2.43.0 (0)
 -->
<!-- Title: _331 Pages: 1 -->
<svg width="709pt" height="227pt"
 viewBox="0.00 0.00 709.00 227.00" xmlns="http://www.w3.org/2000/svg" xmlns:xlink="http://www.w3.org/1999/xlink">
<g id="graph0" class="graph" transform="scale(1 1) rotate(0) translate(4 223)">
<title>_331</title>
<polygon fill="white" stroke="transparent" points="-4,4 -4,-223 705,-223 705,4 -4,4"/>
<g id="clust1" class="cluster">
<title>cluster331diagram</title>
<polygon fill="none" stroke="black" points="8,-8 8,-211 693,-211 693,-8 8,-8"/>
<text text-anchor="start" x="316.5" y="-192.3" font-family="Times,serif" font-weight="bold" font-size="14.00">Diagram</text>
</g>
<g id="clust2" class="cluster">
<title>cluster331subsystems</title>
<polygon fill="none" stroke="white" points="16,-16 16,-172 685,-172 685,-16 16,-16"/>
</g>
<!-- s326 -->
<g id="node1" class="node">
<title>s326</title>
<polygon fill="none" stroke="black" points="66.5,-70 66.5,-91 181.5,-91 181.5,-70 66.5,-70"/>
<text text-anchor="start" x="69.5" y="-77.8" font-family="Times,serif" font-weight="bold" font-size="14.00">LinearSystem</text>
<polygon fill="none" stroke="black" points="66.5,-49 66.5,-70 124.5,-70 124.5,-49 66.5,-49"/>
<text text-anchor="start" x="86" y="-55.8" font-family="Times,serif" font-size="14.00">u0</text>
<polygon fill="none" stroke="black" points="124.5,-49 124.5,-70 181.5,-70 181.5,-49 124.5,-49"/>
<text text-anchor="start" x="144" y="-55.8" font-family="Times,serif" font-size="14.00">y0</text>
</g>
<!-- s327 -->
<g id="node2" class="node">
<title>s327</title>
<polygon fill="none" stroke="black" points="267.5,-138 267.5,-159 496.5,-159 496.5,-138 267.5,-138"/>
<text text-anchor="start" x="270.5" y="-145.8" font-family="Times,serif" font-weight="bold" font-size="14.00">__main__.TrackingController</text>
<polygon fill="none" stroke="black" points="267.5,-117 267.5,-138 419.5,-138 419.5,-117 267.5,-117"/>
<text text-anchor="start" x="340" y="-123.8" font-family="Times,serif" font-size="14.00">r</text>
<polygon fill="none" stroke="black" points="419.5,-96 419.5,-138 496.5,-138 496.5,-96 419.5,-96"/>
<text text-anchor="start" x="453" y="-113.3" font-family="Times,serif" font-size="14.00">u</text>
<polygon fill="none" stroke="black" points="267.5,-96 267.5,-117 419.5,-117 419.5,-96 267.5,-96"/>
<text text-anchor="start" x="300.5" y="-102.8" font-family="Times,serif" font-size="14.00">motor_state</text>
</g>
<!-- s326&#45;&gt;s327 -->
<g id="edge3" class="edge">
<title>s326:e&#45;&gt;s327:w</title>
<path fill="none" stroke="black" d="M182.5,-59C221.6,-59 223.66,-98.27 256.4,-105.02"/>
<polygon fill="black" stroke="black" points="256.21,-108.52 266.5,-106 256.89,-101.55 256.21,-108.52"/>
</g>
<!-- s329 -->
<g id="node4" class="node">
<title>s329</title>
<polygon fill="none" stroke="black" points="333.5,-49 333.5,-70 429.5,-70 429.5,-49 333.5,-49"/>
<text text-anchor="start" x="336.5" y="-56.8" font-family="Times,serif" font-weight="bold" font-size="14.00">MatrixGain</text>
<polygon fill="none" stroke="black" points="333.5,-28 333.5,-49 381.5,-49 381.5,-28 333.5,-28"/>
<text text-anchor="start" x="348" y="-34.8" font-family="Times,serif" font-size="14.00">u0</text>
<polygon fill="none" stroke="black" points="381.5,-28 381.5,-49 429.5,-49 429.5,-28 381.5,-28"/>
<text text-anchor="start" x="396.5" y="-34.8" font-family="Times,serif" font-size="14.00">y0</text>
</g>
<!-- s326&#45;&gt;s329 -->
<g id="edge5" class="edge">
<title>s326:e&#45;&gt;s329:w</title>
<path fill="none" stroke="black" d="M182.5,-59C246.27,-59 263.42,-40.16 322.27,-38.17"/>
<polygon fill="black" stroke="black" points="322.56,-41.66 332.5,-38 322.44,-34.67 322.56,-41.66"/>
</g>
<!-- s327&#45;&gt;s326 -->
<g id="edge4" class="edge">
<title>s327:e&#45;&gt;s326:w</title>
<path fill="none" stroke="black" d="M497.5,-117C508.4,-117 504.19,-100.22 496.5,-92.5 477.85,-73.79 284.49,-88.92 259,-82 225.04,-72.78 223.15,-53.47 189,-45 136.16,-31.89 106.35,-7.9 66.5,-45 65.36,-46.06 64.34,-47.47 63.54,-48.98"/>
<polygon fill="black" stroke="black" points="60.15,-49.86 65.5,-59 67.02,-48.51 60.15,-49.86"/>
</g>
<!-- s328 -->
<g id="node3" class="node">
<title>s328</title>
<polygon fill="none" stroke="black" points="32.5,-138 32.5,-159 215.5,-159 215.5,-138 32.5,-138"/>
<text text-anchor="start" x="35.5" y="-145.8" font-family="Times,serif" font-weight="bold" font-size="14.00">ConstantVectorSource</text>
<polyline fill="none" stroke="grey" points="32.5,-138 32.5,-117 114.5,-117 "/>
<polygon fill="none" stroke="black" points="114.5,-117 114.5,-138 215.5,-138 215.5,-117 114.5,-117"/>
<text text-anchor="start" x="156" y="-123.8" font-family="Times,serif" font-size="14.00">y0</text>
</g>
<!-- s328&#45;&gt;s327 -->
<g id="edge2" class="edge">
<title>s328:e&#45;&gt;s327:w</title>
<path fill="none" stroke="black" d="M216.5,-127C234.9,-127 241.88,-127 256.35,-127"/>
<polygon fill="black" stroke="black" points="256.5,-130.5 266.5,-127 256.5,-123.5 256.5,-130.5"/>
</g>
<!-- s330 -->
<g id="node5" class="node">
<title>s330</title>
<polygon fill="none" stroke="black" points="548.5,-49 548.5,-70 669.5,-70 669.5,-49 548.5,-49"/>
<text text-anchor="start" x="551.5" y="-56.8" font-family="Times,serif" font-weight="bold" font-size="14.00">VectorLogSink</text>
<polygon fill="none" stroke="black" points="548.5,-28 548.5,-49 624.5,-49 624.5,-28 548.5,-28"/>
<text text-anchor="start" x="570.5" y="-34.8" font-family="Times,serif" font-size="14.00">data</text>
<polyline fill="none" stroke="grey" points="624.5,-28 669.5,-28 669.5,-49 "/>
</g>
<!-- s329&#45;&gt;s330 -->
<g id="edge1" class="edge">
<title>s329:e&#45;&gt;s330:w</title>
<path fill="none" stroke="black" d="M430.5,-38C478.95,-38 493.54,-38 537.36,-38"/>
<polygon fill="black" stroke="black" points="537.5,-41.5 547.5,-38 537.5,-34.5 537.5,-41.5"/>
</g>
</g>
</svg>
